<svg xmlns="http://www.w3.org/2000/svg" xmlns:svg="http://www.w3.org/2000/svg" id="svg3289" width="90" height="90" x="0" y="0" version="1.1" viewBox="0 0 90 90"><metadata id="metadata3294"/><g id="layer1" transform="translate(0,-962.3622)"><rect id="rect4443" width="90" height="90" x="0" y="962.362" style="color:#000;fill:none;stroke:none;stroke-width:4;marker:none;visibility:visible;display:inline;overflow:visible;enable-background:accumulate"/><path style="color:#000;fill:none;stroke:#888;stroke-width:9.49973202;stroke-opacity:1;marker:none;visibility:visible;display:inline;overflow:visible;enable-background:accumulate" id="path2995" d="m 68.999996,36.500011 a 33,33.5 0 1 1 -65.9999998,0 A 33,33.5 0 1 1 68.999996,36.500011 Z" transform="matrix(0.63636355,0,0,0.62686561,16.11364,978.4816)"/><path style="font-size:xx-small;font-style:normal;font-variant:normal;font-weight:400;font-stretch:normal;text-indent:0;text-align:start;text-decoration:none;line-height:normal;letter-spacing:normal;word-spacing:normal;text-transform:none;direction:ltr;block-progression:tb;writing-mode:lr-tb;text-anchor:start;baseline-shift:baseline;color:#000;fill:#888;fill-opacity:1;stroke:none;stroke-width:6;marker:none;visibility:visible;display:inline;overflow:visible;enable-background:accumulate;font-family:Sans;-inkscape-font-specification:Sans" id="path3765" d="m 55.77273,1015.2789 -2.83334,2.8333 14.00001,14 2.83333,-2.8333 L 55.77273,1015.2789 Z"/><path style="font-size:xx-small;font-style:normal;font-variant:normal;font-weight:400;font-stretch:normal;text-indent:0;text-align:start;text-decoration:none;line-height:normal;letter-spacing:normal;word-spacing:normal;text-transform:none;direction:ltr;block-progression:tb;writing-mode:lr-tb;text-anchor:start;baseline-shift:baseline;color:#000;fill:#888;fill-opacity:1;stroke:none;stroke-width:11.80387211;marker:none;visibility:visible;display:inline;overflow:visible;enable-background:accumulate;font-family:Sans;-inkscape-font-specification:Sans" id="path3767" d="m 60.97174,1019.3916 c -1.54856,0.01 -3.04489,1.0233 -3.62537,2.4599 -0.58047,1.4367 -0.20983,3.2073 0.89799,4.2901 l 9.1937,9.1999 c 2.68314,2.8494 3.26169,2.4649 5.64266,0.084 2.38098,-2.381 2.76983,-2.7927 -0.0838,-5.6463 l -9.19369,-9.2 C 63.06918,1019.826 62.02307,1019.3872 60.97176,1019.3916 Z"/></g></svg>