<svg xmlns="http://www.w3.org/2000/svg" xmlns:xlink="http://www.w3.org/1999/xlink" id="Layer_1" width="99" height="100" x="0" y="0" version="1.1" viewBox="-248 370.9 99 100" xml:space="preserve" style="enable-background:new -248 370.9 99 100"><style type="text/css">.st0,.st1{fill:none}.st1{stroke:#fff;stroke-width:4}.st2{fill:#fff}.st3{fill:#bf3e2b}</style><title>Slice 1</title><desc>Created with Sketch.</desc><g id="Page-1"><g id="g4845" transform="translate(49.362 49.5) scale(-1 1) rotate(-90) translate(-49.5 -49)"><g id="g4778" transform="translate(49.997 49.5) scale(-1 1) translate(-49 -48.5)"><g id="g4780" transform="translate(49.461 48.5) scale(-1 1) translate(-48.5 -48.5)"><rect id="rect4782" width="96" height="-96" x="-369.9" y="344.4" class="st0" transform="matrix(-.0000025352 -1 1 -.0000025352 -618.29 -25.563)"/><path id="path4205" d="m-359.9 336.4v-80" class="st1"/><path id="path4207" d="m-346.9 296.4h-14" class="st1"/><path id="rect4236" d="m-349.9 336.3h16v-4h-12v-72h12v-4h-16v80zm22 0h16v-4h-16v4zm0-75.9h16v-4h-16v4zm22 75.9h26v-80h-26v4h22v72h-22v4z" class="st2"/><path id="path4238" d="m-303.9 336.4v-80" class="st1"/><path id="path4240" d="m-325.9 336.4v-80" class="st1"/><rect id="rect4242" width="12" height="-6" x="-298.9" y="275.4" class="st2" transform="matrix(-.0000025352 -1 1 -.0000025352 -565.29 -20.563)"/><rect id="rect4244" width="12" height="-6" x="-320.9" y="275.4" class="st2" transform="matrix(-.0000025352 -1 1 -.0000025352 -587.29 -42.563)"/><rect id="rect4246" width="12" height="-6" x="-342.9" y="275.4" class="st2" transform="matrix(-.0000025352 -1 1 -.0000025352 -609.29 -64.563)"/><ellipse id="path4208" cx="-359.9" cy="296.4" class="st2" rx="6" ry="-6" transform="matrix(-.0000025352 -1 1 -.0000025352 -656.29 -63.563)"/></g></g></g><path id="Path-9" d="m-248 370.9" class="st3"/></g></svg>