<svg xmlns="http://www.w3.org/2000/svg" xmlns:xlink="http://www.w3.org/1999/xlink" id="Layer_1" width="96" height="96" x="0" y="0" version="1.1" viewBox="-249 372.9 96 96" xml:space="preserve" style="enable-background:new -249 372.9 96 96"><style type="text/css">.st0{fill:#fff}</style><g id="Comp"><path id="path4297_4_" d="m-233 384.9c-5 0.1-8.7-0.1-11.7 1.5-1.5 0.8-2.7 2.2-3.4 4s-0.9 3.8-0.9 6.5v48c0 2.6 0.2 4.7 0.9 6.5s1.9 3.2 3.4 4c3 1.7 6.7 1.5 11.7 1.5h64c5-0.1 8.7 0.1 11.7-1.5 1.5-0.8 2.7-2.2 3.4-4s0.9-3.8 0.9-6.5v-48c0-2.6-0.2-4.7-0.9-6.5s-1.8-3.2-3.4-4c-3-1.7-6.7-1.5-11.7-1.5h-64zm0 4h64c1.5 0 2.8 0.1 4 0.1v63.8c-1.2 0.1-2.5 0.1-4 0.1h-64c-2.4 0-4.4-0.1-6-0.2v-63.5c1.6-0.2 3.6-0.3 6-0.3zm72 24h4v16h-4v-16z" class="st0"/></g></svg>