<svg xmlns="http://www.w3.org/2000/svg" xmlns:xlink="http://www.w3.org/1999/xlink" id="Layer_1" width="96" height="96" x="0" y="0" version="1.1" viewBox="-249 372.9 96 96" xml:space="preserve" style="enable-background:new -249 372.9 96 96"><style type="text/css">.st0{fill:#fff}</style><g id="Comp"><path id="path4297_3_" d="m-213 376.9c-5 0.1-8.7-0.1-11.7 1.5-1.5 0.8-2.7 2.2-3.4 4s-0.9 3.8-0.9 6.5v64c0 2.6 0.2 4.7 0.9 6.5s1.8 3.2 3.4 4c3 1.7 6.7 1.5 11.7 1.5h24c5-0.1 8.7 0.1 11.7-1.5 1.5-0.8 2.7-2.2 3.4-4s0.9-3.8 0.9-6.5v-64c0-2.6-0.2-4.7-0.9-6.5s-1.9-3.2-3.4-4c-3-1.7-6.7-1.5-11.7-1.5h-24zm-11.9 10h47.8c0 0.6 0.1 1.3 0.1 2v64h-48v-64c0-0.8 0-1.4 0.1-2zm15.9 70h16v4h-16v-4z" class="st0"/></g></svg>