<svg xmlns="http://www.w3.org/2000/svg" xmlns:svg="http://www.w3.org/2000/svg" xmlns:xlink="http://www.w3.org/1999/xlink" id="svg2" width="90" height="90" x="0" y="0" enable-background="new 0 0 90 90" version="1.1" viewBox="0 0 90 90" xml:space="preserve"><g id="g10_1_" transform="matrix(1.25,0,0,-1.25,-406.97987,423.35437)"><g id="g12_1_"><g transform="matrix(0,-0.54716981,0.54545455,0,180.52017,492.43318)"><defs><rect id="SVGID_1_" width="405.873" height="575.821" x="69.475" y="81.283"/></defs><clipPath id="SVGID_2_"><use overflow="visible" xlink:href="#SVGID_1_"/></clipPath><g id="g14_1_" clip-path="url(#SVGID_2_)"><g id="g20_1_" transform="translate(358.7529,350.7095)"><path id="path22_1_" fill="#9fa097" d="M-24.231-34.538 c3.869-6.841,8.238-13.885,13.107-21.135c4.866-7.25,10.086-14.386,15.657-21.401c1.493-1.879,2.988-3.707,4.486-5.486v20.344 c-3.055,4.022-6.048,8.184-8.972,12.504c-3.404,5.03-6.596,10.175-9.589,15.437c-2.99,5.261-6.662,12.687-9.007,17.715 c2.344,5.026,6.017,12.452,9.007,17.715c2.993,5.262,6.185,10.407,9.589,15.436c2.924,4.321,5.917,8.483,8.972,12.505V49.44 c-1.498-1.78-2.993-3.607-4.486-5.486c-5.571-7.018-10.791-14.151-15.657-21.401c-4.869-7.25-9.238-14.294-13.107-21.135 C-28.1-5.422-31.153-11.415-33.38-16.56C-31.153-21.704-28.1-27.697-24.231-34.538"/></g></g></g></g></g></svg>