<svg xmlns="http://www.w3.org/2000/svg" xmlns:svg="http://www.w3.org/2000/svg" xmlns:xlink="http://www.w3.org/1999/xlink" id="svg3140" width="90" height="90" x="0" y="0" enable-background="new -134 136 90 90" version="1.1" viewBox="-134 136 90 90" xml:space="preserve"><g id="layer1" transform="translate(0,-962.36218)"><rect id="rect4198" width="90" height="90" x="-134" y="1098.4" fill="none"/><g id="g4978" transform="translate(-60,548.00002)"><path id="path3759" fill="#FFF" d="M-41,563.4c-24,0-27,0.7-27,18v36c0,18,3,18,30,18h12c27,0,30,0,30-18v-9h-9v6 c0,12,0,12-24,12h-6c-24,0-24,0-24-12v-30c0-10.9,0.2-11.9,18-12V563.4z"/><rect id="rect3045" width="90" height="90" x="-74" y="550.4" fill="none"/><path id="path4984-3" fill="#FFF" d="M-32.1,568.1c0.6-2.5,40-12.4,41.9-10.5c1.9,1.9-8,41.3-10.5,41.9C-3.2,600.1-32.8,570.6-32.1,568.1L-32.1,568.1z"/><path id="path3789" fill="#FFF" d="M-17.6,575l-24.3,24.3 l9.9,9.9l24.3-24.3L-17.6,575z"/></g></g></svg>