<svg xmlns="http://www.w3.org/2000/svg" xmlns:svg="http://www.w3.org/2000/svg" id="svg3140" width="90" height="90" version="1.1"><metadata id="metadata3145"/><g id="layer1" transform="translate(0,-962.36218)"><rect style="color:#000;fill:none;stroke:none;stroke-width:7.5;marker:none;visibility:visible;display:inline;overflow:visible;enable-background:accumulate" id="rect4198" width="90" height="90" x="0" y="962.362"/><g id="g4978" transform="translate(-60,548.00002)"><path style="fill:#dd4814;fill-opacity:1" id="path3759" d="M 33 13.011719 C 8.9936146 13.041401 6 13.746598 6 31 L 6 67 C 6 85 9 85 36 85 L 48 85 C 75 85 78 85 78 67 L 78 58 L 69 58 L 69 64 C 69 76 69 76 45 76 L 39 76 C 15 76 15 76 15 64 L 15 34 C 15 23.136095 15.191578 22.114954 33 22.017578 L 33 13.011719 z" transform="translate(60,414.36216)"/><rect style="color:#000;fill:none;stroke:none;stroke-width:6;marker:none;visibility:visible;display:inline;overflow:visible;enable-background:accumulate" id="rect3045" width="90" height="90" x="0" y="0" transform="translate(60,414.36216)"/><path style="color:#000;fill:#dd4814;fill-opacity:1;fill-rule:nonzero;stroke:none;stroke-width:3;marker:none;visibility:visible;display:inline;overflow:visible;enable-background:accumulate" id="path4984-3" d="m 113.91548,179.14423 c -0.52479,0.30299 -8.74643,-4.44378 -8.74643,-5.04975 0,-0.60597 8.22164,-5.35273 8.74643,-5.04975 0.52478,0.30299 0.52478,9.79652 0,10.0995 z" transform="matrix(-2.9934635,2.9934635,-3.1108986,-3.1108989,1000.1718,648.37103)" xml:space="default"/><path style="font-style:normal;font-variant:normal;font-weight:400;font-stretch:normal;text-indent:0;text-align:start;text-decoration:none;line-height:normal;letter-spacing:normal;word-spacing:normal;text-transform:none;direction:ltr;block-progression:tb;writing-mode:lr-tb;text-anchor:start;baseline-shift:baseline;color:#000;fill:#dd4814;fill-opacity:1;stroke:none;stroke-width:9;marker:none;visibility:visible;display:inline;overflow:visible;enable-background:accumulate;font-family:Sans;-inkscape-font-specification:Sans" id="path3789" d="m 116.42642,438.99503 -24.340002,24.33999 9.940732,9.94073 24.34,-24.34 z" xml:space="default"/></g></g></svg>