<svg xmlns="http://www.w3.org/2000/svg" xmlns:xlink="http://www.w3.org/1999/xlink" width="16" height="16" x="0" y="0" version="1.1" viewBox="0 0 16 16" xml:space="preserve" style="enable-background:new 0 0 16 16"><path style="fill:#aea79f" d="M9.465,5.821C8.995,4.992,8.464,4.138,7.872,3.259 C7.28,2.38,6.645,1.515,5.968,0.665C5.786,0.437,5.604,0.216,5.422,0v2.466c0.372,0.487,0.736,0.992,1.091,1.516 c0.414,0.61,0.802,1.233,1.166,1.871C8.043,6.49,8.489,7.391,8.774,8c-0.285,0.609-0.732,1.509-1.095,2.147 c-0.364,0.638-0.752,1.261-1.166,1.871c-0.355,0.524-0.719,1.028-1.091,1.516V16c0.182-0.216,0.364-0.437,0.545-0.665 c0.677-0.851,1.312-1.715,1.904-2.594c0.592-0.879,1.123-1.733,1.594-2.562C9.936,9.35,10.307,8.624,10.578,8 C10.307,7.376,9.936,6.65,9.465,5.821"/></svg>