<svg xmlns="http://www.w3.org/2000/svg" xmlns:svg="http://www.w3.org/2000/svg" xmlns:xlink="http://www.w3.org/1999/xlink" id="svg3133" width="90" height="90" x="0" y="0" version="1" viewBox="0 0 90 90"><defs id="defs3135"><linearGradient id="linearGradient3803"><stop style="stop-color:#e7e5e5;stop-opacity:1" id="stop3805" offset="0"/><stop style="stop-color:#e2dfdf;stop-opacity:1" id="stop3807" offset="1"/></linearGradient><linearGradient id="linearGradient3809" x1="53.012" x2="53.012" y1="-102.79" y2="-66.661" gradientUnits="userSpaceOnUse" xlink:href="#linearGradient3803"/><linearGradient id="linearGradient3813" x1="53.012" x2="53.012" y1="-102.79" y2="-66.661" gradientTransform="translate(-625,0)" gradientUnits="userSpaceOnUse" xlink:href="#linearGradient3803"/></defs><metadata id="metadata3138"/><g id="layer1" transform="translate(-2.98e-6,-962.36219)" style="display:inline"><g id="g3842" transform="matrix(0.99934414,0,0,1,-106.92982,549.00002)" style="display:inline"><rect style="opacity:.05;color:#000;fill:none;stroke:none;stroke-width:2;marker:none;visibility:visible;display:inline;overflow:visible;enable-background:accumulate" id="rect3844" width="90.059" height="90" x="107" y="-503.362" transform="scale(1,-1)"/><path style="color:#000;fill:none;stroke:#fff;stroke-width:10.49972248;stroke-miterlimit:4;stroke-dasharray:none;marker:none;visibility:visible;display:inline;overflow:visible;enable-background:accumulate" id="path2995" d="m 68.999996,36.500011 a 33,33.5 0 1 1 -65.9999998,0 A 33,33.5 0 1 1 68.999996,36.500011 Z" transform="matrix(0.86331274,0,0,0.85161915,120.95028,427.27807)"/><path style="font-size:xx-small;font-style:normal;font-variant:normal;font-weight:400;font-stretch:normal;text-indent:0;text-align:start;text-decoration:none;line-height:normal;letter-spacing:normal;word-spacing:normal;text-transform:none;direction:ltr;block-progression:tb;writing-mode:lr-tb;text-anchor:start;baseline-shift:baseline;color:#000;fill:#fff;fill-opacity:1;stroke:none;stroke-width:6;marker:none;visibility:visible;display:inline;overflow:visible;enable-background:accumulate;font-family:Sans;-inkscape-font-specification:Sans" id="path3765" d="m 175.1697,477.23717 -4.25279,4.25 12.00787,12 L 187.17757,489.23717 Z"/><path style="font-size:xx-small;font-style:normal;font-variant:normal;font-weight:400;font-stretch:normal;text-indent:0;text-align:start;text-decoration:none;line-height:normal;letter-spacing:normal;word-spacing:normal;text-transform:none;direction:ltr;block-progression:tb;writing-mode:lr-tb;text-anchor:start;baseline-shift:baseline;color:#000;fill:#fff;fill-opacity:1;stroke:none;stroke-width:11.80387211;marker:none;visibility:visible;display:inline;overflow:visible;enable-background:accumulate;font-family:Sans;-inkscape-font-specification:Sans" id="path3767" d="m 180.97203,481.40625 c -2.32437,0.012 -4.57033,1.53501 -5.44162,3.68994 -0.87128,2.15492 -0.31496,4.81092 1.34787,6.43506 l 8.79632,8.79991 c 4.02735,4.27401 4.89575,3.69726 8.46955,0.1258 3.57381,-3.57146 4.15747,-4.18909 -0.1258,-8.46955 l -8.79632,-8.79991 C 184.12024,482.05781 182.55003,481.39971 180.97203,481.40625 Z"/></g></g></svg>